<?xml version="1.0" encoding="UTF-8"?>
<svg id="Layer_1" data-name="Layer 1" xmlns="http://www.w3.org/2000/svg" version="1.1" viewBox="0 0 553.4 148.1">
  <defs>
    <style>
      .cls-1 {
        fill: #d00181;
        stroke-width: 0px;
      }
    </style>
  </defs>
  <path class="cls-1" d="M1.9,83.4h9.1c.6,7.7,5.2,12.9,15.9,12.9s12-4,12-9.2-5.6-8.3-16-11c-9-2.4-18.8-5.3-18.8-16.2s7.7-15.6,20-15.6,21.5,6.6,22.4,18.2h-9.1c-1-6.9-4.9-10.6-13.2-10.6s-10.9,2.6-10.9,7.6,6,7.8,13.4,9.6c11,2.8,21.4,5.4,21.4,17.5s-6.6,17.2-21,17.2S2.6,96.2,1.9,83.4Z"/>
  <path class="cls-1" d="M52.6,82.2c0-12.7,7.7-21.7,20.5-21.7s20.3,8.9,20.3,21.6-7.7,21.7-20.4,21.7-20.4-8.8-20.4-21.6ZM73.1,97.4c8.3,0,12.2-6.6,12.2-15.1s-3.8-15.1-12.2-15.1-12.3,6.6-12.3,15.1,3.8,15.1,12.3,15.1Z"/>
  <path class="cls-1" d="M112.5,44.9c1.5,0,2.7.2,5,.5v6.3c-1.6-.2-2.2-.2-3.4-.2-3.3,0-4.2,1-4.2,5.3v5.1h7.6v6.5h-7.6v34.3h-7.9v-34.3h-5.6v-6.5h5.6v-5c0-9.4,3.9-12,10.6-12ZM122.2,46.1h8.9v8.5h-8.9v-8.5ZM122.7,61.8h7.8v40.8h-7.8v-40.8Z"/>
  <path class="cls-1" d="M137.3,92.1c0-9.1,6.9-11.8,17-13.8,6.4-1.2,10.3-2,10.3-6s-1.8-5.4-7.8-5.4-9.3,2.2-9.7,7.7h-8c.4-7.8,5.5-14,18-14s15.1,3.5,15.1,14.1v18.7c0,3,.4,4.5,1.9,4.5s.5,0,1,0v4.8c-1.4.3-2.7.5-4,.5-3.9,0-6-1.5-6.5-6.2h-.2c-2.6,4.2-7.3,6.9-13.9,6.9s-13.4-4.7-13.4-11.7ZM152.4,97.4c7,0,12.2-3.6,12.2-10.7v-5.8c-1.3,1.2-4.8,2.1-9,3-7.2,1.4-10.2,3.4-10.2,7.7s2.1,5.9,7,5.9Z"/>
  <path class="cls-1" d="M197,74c0-17.2,11-29.7,28.1-29.7s28.1,12.5,28.1,29.7-11,29.8-28.1,29.8-28.1-12.6-28.1-29.8ZM225.1,96.2c13.5,0,18.9-10.4,18.9-22.2s-5.4-22.1-18.9-22.1-18.9,10.3-18.9,22.1,5.4,22.2,18.9,22.2Z"/>
  <path class="cls-1" d="M259.9,45.4h7.8v57.2h-7.8v-57.2Z"/>
  <path class="cls-1" d="M276.1,46.1h8.9v8.5h-8.9v-8.5ZM276.6,61.8h7.8v40.8h-7.8v-40.8Z"/>
  <path class="cls-1" d="M289.4,61.8h8.4l10.7,32.7h0l10.6-32.7h8.2l-14.6,40.8h-8.8l-14.6-40.8Z"/>
  <path class="cls-1" d="M328.8,82.2c0-12.8,7.7-21.6,20.2-21.6s19.4,8.2,19.4,20.8,0,2.3,0,3h-31.4c.2,6.8,4.2,13.1,12.2,13.1s10-4.6,10.7-7.4h8c-2.2,7.8-8.2,13.8-18.9,13.8s-20.2-9.2-20.2-21.7ZM360.2,78.2c0-6.4-4.5-11.2-11.4-11.2s-11.4,4.5-11.8,11.2h23.3Z"/>
  <path class="cls-1" d="M374.5,46.1h8.9v8.5h-8.9v-8.5ZM375,61.8h7.8v40.8h-7.8v-40.8Z"/>
  <path class="cls-1" d="M399.4,102.6h-7.8v-40.8h7.8v7.8h.2c2.2-5.1,5.4-8.7,11-8.7s2.6,0,3.8.2v7.5c-1-.2-1.7-.2-2.6-.2-7.1,0-12.2,5.4-12.2,13.1v21.1Z"/>
  <path class="cls-1" d="M415.9,92.1c0-9.1,6.9-11.8,17-13.8,6.4-1.2,10.3-2,10.3-6s-1.8-5.4-7.8-5.4-9.3,2.2-9.7,7.7h-8c.4-7.8,5.5-14,18-14s15.1,3.5,15.1,14.1v18.7c0,3,.4,4.5,1.9,4.5s.5,0,1,0v4.8c-1.4.3-2.7.5-4,.5-3.9,0-6-1.5-6.5-6.2h-.2c-2.6,4.2-7.3,6.9-13.9,6.9s-13.4-4.7-13.4-11.7ZM431,97.4c7,0,12.2-3.6,12.2-10.7v-5.8c-1.3,1.2-4.8,2.1-9,3-7.2,1.4-10.2,3.4-10.2,7.7s2.1,5.9,7,5.9Z"/>
</svg>